<svg width="82" height="8" viewBox="0 0 82 8" fill="none" xmlns="http://www.w3.org/2000/svg">
<path opacity="0.5" d="M0.646446 3.64645C0.451185 3.84171 0.451185 4.15829 0.646446 4.35356L3.82843 7.53554C4.02369 7.7308 4.34027 7.7308 4.53553 7.53554C4.7308 7.34027 4.7308 7.02369 4.53553 6.82843L1.70711 4L4.53553 1.17157C4.7308 0.976312 4.7308 0.65973 4.53553 0.464468C4.34027 0.269205 4.02369 0.269205 3.82843 0.464468L0.646446 3.64645ZM21 3.5L1 3.5L1 4.5L21 4.5L21 3.5Z" fill="#383838"/>
<path d="M81.3536 3.64645C81.5488 3.84171 81.5488 4.15829 81.3536 4.35356L78.1716 7.53554C77.9763 7.7308 77.6597 7.7308 77.4645 7.53554C77.2692 7.34027 77.2692 7.02369 77.4645 6.82843L80.2929 4L77.4645 1.17158C77.2692 0.976314 77.2692 0.659731 77.4645 0.464469C77.6597 0.269207 77.9763 0.269207 78.1716 0.464469L81.3536 3.64645ZM41 3.5L81 3.5L81 4.5L41 4.5L41 3.5Z" fill="#E9B0B0"/>
</svg>
