<svg width="22" height="22" viewBox="0 0 22 22" fill="none" xmlns="http://www.w3.org/2000/svg">
<g clip-path="url(#clip0_6_13)">
<path d="M20.8939 15.8373C20.8697 15.7824 20.8471 15.7369 20.8261 15.7003C20.4791 15.0432 19.8161 14.2364 18.8372 13.2801L18.8165 13.2581L18.8063 13.2475L18.7957 13.2364H18.7852C18.3409 12.7911 18.0596 12.4916 17.9418 12.3384C17.7264 12.0463 17.678 11.7507 17.7958 11.4512C17.8791 11.2249 18.1917 10.747 18.733 10.0168C19.0177 9.62986 19.2432 9.31972 19.4098 9.08606C20.6109 7.40686 21.1316 6.33383 20.9719 5.86655L20.9098 5.75735C20.8681 5.69161 20.7605 5.63147 20.5871 5.57662C20.4134 5.52189 20.1913 5.51284 19.9206 5.54931L16.9217 5.57109C16.8731 5.55299 16.8036 5.55468 16.7133 5.57662C16.6231 5.59856 16.5779 5.60956 16.5779 5.60956L16.5257 5.63699L16.4843 5.66994C16.4495 5.69173 16.4113 5.73004 16.3696 5.78482C16.3281 5.83939 16.2936 5.90345 16.2657 5.97643C15.9392 6.85979 15.5681 7.6811 15.1514 8.4403C14.8946 8.89301 14.6587 9.28535 14.4433 9.6175C14.228 9.94965 14.0475 10.1943 13.9018 10.3512C13.7559 10.5081 13.6243 10.6339 13.506 10.7289C13.3881 10.824 13.298 10.864 13.2355 10.8493C13.1729 10.8348 13.1141 10.8202 13.0583 10.8056C12.9612 10.7398 12.883 10.6504 12.8241 10.5372C12.765 10.4241 12.7251 10.2817 12.7044 10.1101C12.6835 9.93841 12.6714 9.79076 12.6679 9.6666C12.6646 9.54267 12.6661 9.36725 12.6732 9.14094C12.6804 8.91453 12.6835 8.76133 12.6835 8.68103C12.6835 8.40356 12.6887 8.10243 12.699 7.77757C12.7096 7.45269 12.7181 7.1953 12.7251 7.00566C12.7322 6.81583 12.7355 6.61502 12.7355 6.4033C12.7355 6.19157 12.7232 6.02553 12.699 5.90502C12.6752 5.78466 12.6384 5.66783 12.59 5.55457C12.5413 5.44142 12.4701 5.35389 12.3766 5.29175C12.2829 5.2297 12.1663 5.18045 12.0277 5.14386C11.6598 5.05629 11.1911 5.00892 10.6218 5.00156C9.33065 4.98698 8.50102 5.07466 8.13308 5.26449C7.9873 5.34469 7.85538 5.45427 7.73743 5.59288C7.61244 5.75355 7.59501 5.84124 7.68524 5.85565C8.10183 5.92128 8.39674 6.07827 8.57032 6.32647L8.63287 6.45799C8.68152 6.55287 8.7301 6.72088 8.77872 6.96174C8.82726 7.20261 8.8586 7.46907 8.87237 7.76095C8.90703 8.29397 8.90703 8.75025 8.87237 9.12982C8.83762 9.50949 8.8048 9.80512 8.77347 10.0169C8.74214 10.2286 8.6953 10.4002 8.63287 10.5316C8.57032 10.6629 8.5287 10.7432 8.50784 10.7724C8.487 10.8016 8.46965 10.82 8.45586 10.8271C8.36563 10.8635 8.27179 10.882 8.17466 10.882C8.07739 10.882 7.95944 10.8309 7.82062 10.7285C7.68185 10.6263 7.53783 10.4859 7.38853 10.307C7.23925 10.128 7.07091 9.87806 6.88339 9.55682C6.69603 9.23564 6.50163 8.85603 6.30031 8.41802L6.13374 8.10036C6.02961 7.896 5.88737 7.59844 5.70687 7.20795C5.52626 6.8173 5.36662 6.43942 5.22784 6.07439C5.17236 5.92108 5.08902 5.80437 4.97797 5.72405L4.92586 5.6911C4.8912 5.66196 4.83558 5.63101 4.75928 5.59802C4.68288 5.56507 4.60314 5.54145 4.51977 5.52691L1.66657 5.5487C1.37501 5.5487 1.17718 5.61816 1.07302 5.75689L1.03133 5.82252C1.0105 5.85906 1 5.91744 1 5.9978C1 6.07812 1.02083 6.17669 1.06251 6.2934C1.47903 7.32287 1.93198 8.31569 2.42137 9.27203C2.91076 10.2284 3.33602 10.9988 3.69691 11.5825C4.05788 12.1666 4.42582 12.7179 4.80071 13.236C5.17561 13.7544 5.42377 14.0866 5.54519 14.2326C5.66675 14.3788 5.76223 14.4881 5.83163 14.561L6.09202 14.8238C6.25862 14.9991 6.50327 15.209 6.8261 15.4535C7.14898 15.6981 7.50645 15.939 7.89868 16.1765C8.29096 16.4135 8.74736 16.6069 9.26806 16.7566C9.78871 16.9064 10.2955 16.9665 10.7884 16.9375H11.986C12.2288 16.9154 12.4128 16.8352 12.5378 16.6966L12.5792 16.6417C12.6072 16.598 12.6332 16.5304 12.6573 16.4392C12.6816 16.3481 12.6937 16.2475 12.6937 16.1382C12.6866 15.8243 12.7094 15.5413 12.7614 15.2896C12.8132 15.0378 12.8723 14.848 12.9385 14.7201C13.0047 14.5924 13.0792 14.4846 13.1623 14.3972C13.2456 14.3097 13.3049 14.2567 13.3397 14.2385C13.3742 14.2201 13.4018 14.2076 13.4227 14.2C13.5892 14.1417 13.7853 14.1983 14.0112 14.37C14.2368 14.5415 14.4486 14.7533 14.6465 15.0051C14.8444 15.2571 15.0821 15.5399 15.3596 15.8537C15.6375 16.1677 15.8804 16.4011 16.0885 16.5546L16.2968 16.686C16.4359 16.7736 16.6163 16.854 16.8386 16.927C17.0604 17 17.2547 17.0183 17.4214 16.9817L20.0871 16.938C20.3509 16.938 20.556 16.8921 20.7014 16.801C20.8473 16.7097 20.934 16.6092 20.9618 16.4999C20.9898 16.3905 20.9912 16.2662 20.9671 16.1274C20.9424 15.9888 20.9181 15.892 20.8939 15.8373Z" fill="#C3C3C3"/>
</g>
<defs>
<clipPath id="clip0_6_13">
<rect width="22" height="22" fill="white"/>
</clipPath>
</defs>
</svg>
