<svg width="22" height="22" viewBox="0 0 22 22" fill="none" xmlns="http://www.w3.org/2000/svg">
<g clip-path="url(#clip0_6_15)">
<path d="M20.2204 5.28765C19.4985 4.37306 18.1656 4 15.6201 4H6.37975C3.77594 4 2.42045 4.39713 1.70123 5.37083C1 6.3202 1 7.71903 1 9.65503V13.345C1 17.0957 1.832 19 6.37975 19H15.6201C17.8276 19 19.0508 18.6709 19.8422 17.8637C20.6538 17.036 21 15.6847 21 13.345V9.65503C21 7.61335 20.9458 6.20628 20.2204 5.28765ZM13.8401 12.0095L9.64406 14.3465C9.55026 14.3988 9.44767 14.4247 9.34522 14.4247C9.22922 14.4247 9.11348 14.3914 9.01097 14.3253C8.81794 14.2006 8.70006 13.9777 8.70006 13.7371V9.07803C8.70006 8.83794 8.81761 8.61518 9.01026 8.49045C9.20297 8.36574 9.44264 8.35721 9.64258 8.4679L13.8386 10.7899C14.0521 10.908 14.1861 11.1429 14.1864 11.3991C14.1867 11.6556 14.0533 11.8908 13.8401 12.0095Z" fill="#C3C3C3"/>
</g>
<defs>
<clipPath id="clip0_6_15">
<rect width="22" height="22" fill="white"/>
</clipPath>
</defs>
</svg>
